<svg xmlns="http://www.w3.org/2000/svg" viewBox="0 0 336.82 326.37"><defs><style>.cls-1{fill:#fff;}</style></defs><title>github</title><g id="Layer_2" data-name="Layer 2"><g id="Layer_1-2" data-name="Layer 1"><path class="cls-1" d="M325.61,107.62A166.64,166.64,0,0,0,276,39,168.16,168.16,0,0,0,37.53,62.4l-1.4,1.74C13.76,92.19.23,127.27,0,164.52c-.3,51.17,18.38,93.25,54.81,126.12,1.25,1.13,2.52,2.24,3.81,3.35,1,.85,2,1.7,3,2.53,1.3,1.08,2.62,2.14,4,3.2,1.52,1.18,3.06,2.36,4.62,3.52a151.53,151.53,0,0,0,32.18,18.05q5.52,2.28,11.21,4.2c8.1,2.72,13-1,13-9.55,0-8-.25-16-.07-24,.08-3.76-.42-5.5-4.86-4.35a54.77,54.77,0,0,1-18.89,1C87.13,287.1,75,280.4,68.72,265c-3.63-8.91-9-16.66-17.25-22.12-2.88-1.91-8-3.85-6.26-7.73s7-2.76,10.88-1.85c10.25,2.37,17.09,9.08,22.54,17.69,9,14.25,21.79,19.45,38.11,16.08,6.37-1.32,11.45-3.13,12.16-11.07.49-5.55,4.57-10,8.14-14.69-4.2-.63-7.66-1-11.07-1.67-17-3.15-32.48-9-45.34-21.35-20.39-19.5-29.6-74.44-4.57-101.55,1.64-1.78,1.93-3.39,1.18-5.81-3.48-11.31-3-22.67.34-34,2.36-8.06,2.81-8.37,11.16-7,.49.08,1,.21,1.47.31,12,2.38,22.46,8.16,32.61,14.6a8.6,8.6,0,0,0,7.42,1.17c21-5.11,42.33-6.8,63.41-2.24,12,2.6,21.8,1.48,32-5.51a52,52,0,0,1,26.78-8.76c3.16-.17,4.79.85,5.74,4a76,76,0,0,1,3.66,23.57c-.09,5.88-3.69,11.85-2.44,17,1.31,5.37,6.78,9.6,9.53,15,7.62,14.95,7.69,30.77,5.78,46.86-3.78,32-21.18,52.21-52.25,60.9a174.29,174.29,0,0,1-23.21,4.38c11.57,12.22,11.3,26.91,11.09,41.63-.16,10.83-.17,21.66-.21,32.49,0,9.61,4.67,13,13.81,9.89h0c.55-.18,1.09-.38,1.63-.57l.41-.14C313.77,293.62,359.49,194.55,325.61,107.62Z"/></g></g></svg>