<svg xmlns="http://www.w3.org/2000/svg" viewBox="0 0 24 24"><defs><style>.cls-1{fill:#fff;}</style></defs><title>ajax_1</title><g id="Layer_2" data-name="Layer 2"><g id="Layer_1-2" data-name="Layer 1"><rect width="24" height="24"/><path class="cls-1" d="M16.12,14.48h-1a.07.07,0,0,1-.08-.05l-.28-.69s0-.05-.07-.05H13.09s-.05,0-.07.05l-.28.7s0,0-.05,0h-1s0,0,0-.05c.54-1.2,1.07-2.4,1.61-3.61a.07.07,0,0,1,.07,0h1.05a.07.07,0,0,1,.07,0l1.62,3.62Zm-2.8-1.41h1.16l-.59-1.46Z"/><path class="cls-1" d="M8,14.48H7a.08.08,0,0,1-.07,0c-.09-.24-.19-.47-.28-.71a.05.05,0,0,0-.06,0H5s0,0,0,0c-.1.24-.2.47-.29.71,0,0,0,0-.07,0h-1a.06.06,0,0,0,0,0l1.62-3.62s0,0,.06,0H6.35s0,0,.06,0L8,14.44S8,14.46,8,14.48ZM6.41,13.07l-.59-1.46-.57,1.46Z"/><path class="cls-1" d="M7.05,11.32l.42-.44.27.24.26.22.08,0V8.47A1.13,1.13,0,0,1,9,7.37h.2c.43,0,.86,0,1.29,0A1.13,1.13,0,0,1,11.57,8a1.12,1.12,0,0,1,.09.44c0,.13,0,.25,0,.38h-1V8.79a2.3,2.3,0,0,0,0-.37.62.62,0,0,0-.61-.49H9.54a.64.64,0,0,0-.64.63v2.8a.11.11,0,0,0,.11,0l.4-.41,0,0,.5.45L8.49,12.76Z"/><path class="cls-1" d="M9,13.1c0,.1,0,.2,0,.3a.64.64,0,0,0,.49.62h.66a.64.64,0,0,0,.64-.54.71.71,0,0,0,0-.14V10.67a.12.12,0,0,0,0-.07s-.06,0-.09,0l-.38.39,0,.06-.5-.45L11.18,9.2l1.44,1.44-.42.43-.26-.22-.27-.23-.06,0a.14.14,0,0,0,0,.06V13.4a1.15,1.15,0,0,1-.15.63,1.11,1.11,0,0,1-1,.57H9.14A1.13,1.13,0,0,1,8,13.48c0-.11,0-.22,0-.34s0,0,0,0H9Z"/><path class="cls-1" d="M20.57,14.49H19.42a.11.11,0,0,1-.09,0c-.27-.4-.55-.79-.83-1.19l0,0,0,0-.82,1.2a.09.09,0,0,1-.07,0H16.29l1.58-1.91-1.42-1.81H17.6a.09.09,0,0,1,.08.05l.74,1.11,0,0,.05-.07c.25-.36.51-.72.76-1.09,0,0,0,0,.07,0h1.14l-.08.1-1.34,1.65s0,.05,0,.08c.5.61,1,1.23,1.49,1.85Z"/><path class="cls-1" d="M8.05,14.58H7a.05.05,0,0,1-.06,0l-.28-.7s0-.05-.07-.05H5s-.06,0-.07.05c-.1.23-.19.47-.29.7,0,0,0,0,0,0h-1c0-.07,0-.07.08-.07h1a.09.09,0,0,0,.08,0c.09-.23.19-.46.28-.7a.07.07,0,0,1,.07,0H6.6a.06.06,0,0,1,.06,0c.1.23.19.46.29.7a.07.07,0,0,0,.07,0H8S8.05,14.52,8.05,14.58Z"/><path class="cls-1" d="M11.65,14.58c0-.07,0-.07.09-.07h.94a.09.09,0,0,0,.08,0c.09-.24.19-.47.28-.7a.06.06,0,0,1,.06,0h1.57s.05,0,.06,0l.28.69a.1.1,0,0,0,.1.07H16c.06,0,.07,0,.08.07h-1s-.06,0-.07,0c-.09-.24-.19-.47-.28-.71a.07.07,0,0,0-.07,0H13.09a.05.05,0,0,0-.06,0c-.09.24-.19.47-.29.71,0,0,0,0-.06,0h-1Z"/><path class="cls-1" d="M16.28,14.59a.12.12,0,0,1,.11-.07h1.15a.08.08,0,0,0,.08,0l.8-1.16a.21.21,0,0,0,0-.06l.13.18.74,1a.08.08,0,0,0,.08,0h1.07c.05,0,.07,0,.1.07H19.42a.1.1,0,0,1-.09,0l-.83-1.18,0,0,0,0-.82,1.18a.07.07,0,0,1-.06,0H16.28Z"/><path class="cls-1" d="M8,13.84a1.15,1.15,0,0,0,.24.4,1.13,1.13,0,0,0,.87.38q.64,0,1.29,0a1.15,1.15,0,0,0,1.1-.75l0,0a1,1,0,0,1-.06.16,1.15,1.15,0,0,1-.88.68H9.12A1.14,1.14,0,0,1,8,13.85Z"/><path class="cls-1" d="M8.48,12.86,7,11.41l0,0L8.48,12.8l1.43-1.41,0,0Z"/><path class="cls-1" d="M10.66,8.44a.66.66,0,0,0-.6-.42H9.55a.62.62,0,0,0-.59.4l0,0s0,0,0-.08A.6.6,0,0,1,9.52,8a4.3,4.3,0,0,1,.62,0A.58.58,0,0,1,10.66,8.44Z"/><path class="cls-1" d="M20.49,10.85l-1.41,1.74s0,0,0-.07l.63-.77.7-.86S20.45,10.84,20.49,10.85Z"/><path class="cls-1" d="M17.81,12.6l-1.37-1.74s0,0,.07,0L17.36,12c.15.19.3.39.46.58C17.83,12.56,17.85,12.58,17.81,12.6Z"/><path class="cls-1" d="M9.72,10.72l0,0,.42.38s.05,0,.08,0l.42-.42.06,0v.07l-.07.05-.41.41,0,0Z"/><path class="cls-1" d="M12.2,11.17,12,11l-.3-.26s-.06,0,0-.1l.57.5.4-.42s0,0,0,.05l-.4.42Z"/><path class="cls-1" d="M10.7,9c0-.07,0-.07.05-.07h.87s.05,0,.05,0,0,0,0,0H10.7Z"/><path class="cls-1" d="M13.89,11.68,14.44,13h0l-.52-1.31h0l-.52,1.31h0Z"/><path class="cls-1" d="M5.28,13l.54-1.36L6.37,13h0l-.52-1.31h0L5.3,13.05Z"/></g></g></svg>