<svg xmlns="http://www.w3.org/2000/svg" viewBox="0 0 24.25 24.25"><defs><style>.cls-1{stroke:#404041;stroke-miterlimit:10;stroke-width:0.25px;}.cls-2{fill:#fff;}</style></defs><title>Angular</title><g id="Layer_2" data-name="Layer 2"><g id="Layer_1-2" data-name="Layer 1"><rect class="cls-1" x="0.13" y="0.13" width="24" height="24"/><path class="cls-2" d="M19.52,6.49c-.24,2-.46,3.94-.68,5.84-.13,1.2-.27,2.41-.43,3.61a.65.65,0,0,1-.28.41c-1.91,1.08-3.83,2.13-5.75,3.21a.53.53,0,0,1-.58,0L6.09,16.36a.7.7,0,0,1-.31-.44Q5.38,12.58,5,9.23c-.1-.82-.18-1.64-.3-2.46,0-.28,0-.42.3-.53,2.27-.79,4.53-1.61,6.8-2.4a1,1,0,0,1,.61,0c2.26.78,4.51,1.59,6.76,2.4A1.25,1.25,0,0,1,19.52,6.49ZM16.79,16,12.1,5.42,7.4,16c.53,0,1,0,1.42,0a.46.46,0,0,0,.53-.35c.21-.57.46-1.13.67-1.71a.4.4,0,0,1,.44-.3h3.27a.38.38,0,0,1,.44.3c.22.59.46,1.19.71,1.77,0,.11.18.26.28.27C15.68,16,16.19,16,16.79,16Z"/><path d="M16.79,16c-.6,0-1.11,0-1.63,0-.1,0-.23-.16-.28-.27-.25-.58-.49-1.18-.71-1.77a.38.38,0,0,0-.44-.3H10.46a.4.4,0,0,0-.44.3c-.21.58-.46,1.14-.67,1.71a.46.46,0,0,1-.53.35c-.44,0-.89,0-1.42,0L12.1,5.42ZM13.41,12.1,12.1,9,10.79,12.1Z"/><path class="cls-2" d="M13.41,12.1H10.79L12.1,9Z"/></g></g></svg>