<svg xmlns="http://www.w3.org/2000/svg" viewBox="0 0 24 24"><defs><style>.cls-1{fill:#fff;}</style></defs><title>anime.js_1</title><g id="Layer_2" data-name="Layer 2"><g id="Layer_1-2" data-name="Layer 1"><rect width="24" height="24"/><path class="cls-1" d="M20.43,2.68h-17c-.63,0-.89.25-.89.88v17c0,.64.26.89.89.89h17c.64,0,.89-.25.89-.89v-17C21.32,2.93,21.07,2.68,20.43,2.68Zm0,18.21c-1.35,0-2.7,0-4,0H3.44c-.33,0-.33,0-.33-.33v-12c0-.08,0-.17,0-.25V7.64c0-1.38,0-2.76,0-4.14,0-.17.06-.23.22-.22a.57.57,0,0,0,.13,0H20.37c.34,0,.34,0,.34.35q0,8.46,0,16.93C20.72,20.81,20.66,20.89,20.4,20.89Z"/><path class="cls-1" d="M16.14,20.64a27.35,27.35,0,0,0-1.29-2.53.64.64,0,0,1-.11-.31l-.47.21a.51.51,0,0,1,.2.21c.42.71.78,1.45,1.14,2.19.06.14.19.29.08.47h.66A.42.42,0,0,1,16.14,20.64Z"/><path class="cls-1" d="M14.74,17.8a.64.64,0,0,0,.11.31,27.35,27.35,0,0,1,1.29,2.53.42.42,0,0,0,.21.24,23.53,23.53,0,0,0-1.56-3.09Z"/><path class="cls-1" d="M15.61,20.41c-.36-.74-.72-1.48-1.14-2.19a.51.51,0,0,0-.2-.21l0,0a23.18,23.18,0,0,1,1.46,2.85C15.8,20.7,15.67,20.55,15.61,20.41Z"/><path class="cls-1" d="M3.5,8.34A24.84,24.84,0,0,1,5.79,9.53.56.56,0,0,1,6,9.7l.21-.46c-.2,0-.34-.13-.5-.21C5,8.61,4.18,8.22,3.4,7.88a.45.45,0,0,1-.28-.24V8.3C3.26,8.21,3.38,8.28,3.5,8.34Z"/><path class="cls-1" d="M3.4,7.88C4.18,8.22,5,8.61,5.7,9c.16.08.3.22.5.21v0A21.36,21.36,0,0,0,3.12,7.64.45.45,0,0,0,3.4,7.88Z"/><path class="cls-1" d="M6,9.7a.56.56,0,0,0-.2-.17A24.84,24.84,0,0,0,3.5,8.34c-.12-.06-.24-.13-.38,0A23.05,23.05,0,0,1,6,9.76Z"/><path class="cls-1" d="M6,9.74v0a.66.66,0,0,1-.06.39,6,6,0,0,0-.3,2.29A6.15,6.15,0,0,0,7,15.92a6.26,6.26,0,0,0,4.29,2.39A6.52,6.52,0,0,0,13.83,18a.66.66,0,0,1,.39-.06l0,0a.42.42,0,0,1,.5-.22c0-.15.18-.21.3-.28a6.28,6.28,0,0,0,3-4.23,5.88,5.88,0,0,0-.41-3.65,6.06,6.06,0,0,0-4.73-3.7,6.05,6.05,0,0,0-5,1.35,6.13,6.13,0,0,0-1.4,1.64c-.08.13-.14.27-.3.33h0A.45.45,0,0,1,6,9.74Zm.5.37a2,2,0,0,1,.24-.57,5.47,5.47,0,0,1,2-2.28,5.76,5.76,0,0,1,7.83,8.18,5.41,5.41,0,0,1-2.14,1.8,1.88,1.88,0,0,1-.56.25,5.49,5.49,0,0,1-4.73-.35,5.64,5.64,0,0,1-3-5.29A4.52,4.52,0,0,1,6.51,10.11Z"/><path class="cls-1" d="M6.22,9.24c.16-.06.22-.2.3-.33a6.13,6.13,0,0,1,1.4-1.64,6.05,6.05,0,0,1,5-1.35,6.06,6.06,0,0,1,4.73,3.7,5.88,5.88,0,0,1,.41,3.65,6.28,6.28,0,0,1-3,4.23c-.12.07-.26.13-.3.28h0l.23-.15A6.37,6.37,0,1,0,8.74,6.56,6.59,6.59,0,0,0,6.21,9.21v0Z"/><path class="cls-1" d="M14.25,18l0,0a.66.66,0,0,0-.39.06,6.52,6.52,0,0,1-2.56.27A6.26,6.26,0,0,1,7,15.92a6.15,6.15,0,0,1-1.32-3.48A6,6,0,0,1,6,10.15.66.66,0,0,0,6,9.76v0l0,0a6.58,6.58,0,0,0-.27,3.7,6.39,6.39,0,0,0,5.53,5,6.71,6.71,0,0,0,3-.39h0Z"/><path class="cls-1" d="M14.75,17.78a.42.42,0,0,0-.5.22h0l.47-.21h0Z"/><path class="cls-1" d="M14.75,17.78h0Z"/><path class="cls-1" d="M14.23,18h0l0,0h0Z"/><path class="cls-1" d="M6.22,9.24h0L6,9.7s0,0,0,0A.45.45,0,0,0,6.22,9.24Z"/><path class="cls-1" d="M6.22,9.24v0Z"/><path class="cls-1" d="M6,9.7l0,.06,0,0S6,9.72,6,9.7Z"/><path class="cls-1" d="M6.94,10.25c.61.4,1.2.84,1.77,1.3a22.85,22.85,0,0,1,2,1.8,24.61,24.61,0,0,1,3.06,3.77c.07.11.18.22.11.37a1.88,1.88,0,0,0,.56-.25c-.13,0-.19-.1-.25-.19a25.13,25.13,0,0,0-2.31-3,25,25,0,0,0-2-2,27.32,27.32,0,0,0-3-2.28c-.08-.06-.15-.11-.16-.22a2,2,0,0,0-.24.57C6.69,10,6.81,10.17,6.94,10.25Z"/><path class="cls-1" d="M6.91,9.76a27.32,27.32,0,0,1,3,2.28,25,25,0,0,1,2,2,25.13,25.13,0,0,1,2.31,3c.06.09.12.19.25.19l-.09-.15a25,25,0,0,0-4.24-5A22.16,22.16,0,0,0,6.75,9.54C6.76,9.65,6.83,9.7,6.91,9.76Z"/><path class="cls-1" d="M13.89,17.49c.07-.15,0-.26-.11-.37a24.61,24.61,0,0,0-3.06-3.77,22.85,22.85,0,0,0-2-1.8c-.57-.46-1.16-.9-1.77-1.3-.13-.08-.25-.22-.43-.14a21.73,21.73,0,0,1,2.69,2A24.16,24.16,0,0,1,13.89,17.49Z"/></g></g></svg>