<svg xmlns="http://www.w3.org/2000/svg" viewBox="0 0 24 24"><defs><style>.cls-1{fill:#fff;}</style></defs><title>c</title><g id="Layer_2" data-name="Layer 2"><g id="Layer_1-2" data-name="Layer 1"><rect width="24" height="24"/><path id="_Path_" data-name="&lt;Path&gt;" class="cls-1" d="M19.93,8.33a1.6,1.6,0,0,0-.19-.8A1.56,1.56,0,0,0,19.16,7L12.83,3.32a1.57,1.57,0,0,0-1.69,0c-.84.5-5.05,2.91-6.3,3.63a1.47,1.47,0,0,0-.77,1.36v7.34A1.47,1.47,0,0,0,4.83,17c1.26.72,5.47,3.13,6.31,3.63a1.57,1.57,0,0,0,1.69,0Q16,18.85,19.17,17a1.47,1.47,0,0,0,.76-1.36V8.33"/><path id="_Path_2" data-name="&lt;Path&gt;" class="cls-1" d="M12,12,4.25,16.45a1.61,1.61,0,0,0,.58.58c1.26.72,5.47,3.13,6.31,3.63a1.57,1.57,0,0,0,1.69,0Q16,18.85,19.17,17a1.61,1.61,0,0,0,.58-.58L12,12"/><path id="_Path_3" data-name="&lt;Path&gt;" class="cls-1" d="M9.72,13.3a2.63,2.63,0,0,0,4.57,0L12,12,9.72,13.3"/><path id="_Path_4" data-name="&lt;Path&gt;" class="cls-1" d="M19.93,8.33a1.6,1.6,0,0,0-.19-.8L12,12l7.73,4.47a1.61,1.61,0,0,0,.18-.78V8.33"/><path id="_Path_5" data-name="&lt;Path&gt;" d="M14.29,13.29a2.63,2.63,0,0,1-4.57,0A2.63,2.63,0,0,1,12,9.38a2.63,2.63,0,0,1,2.27,1.3l2.29-1.32A5.27,5.27,0,0,0,6.73,12a5.18,5.18,0,0,0,.7,2.62,5.27,5.27,0,0,0,9.15,0l-2.29-1.32"/><g id="_Group_" data-name="&lt;Group&gt;"><rect id="_Rectangle_" data-name="&lt;Rectangle&gt;" x="16.66" y="10.75" width="0.52" height="2.52"/><rect id="_Rectangle_2" data-name="&lt;Rectangle&gt;" x="17.82" y="10.75" width="0.52" height="2.52"/><rect id="_Rectangle_3" data-name="&lt;Rectangle&gt;" x="17.24" y="10.18" width="0.52" height="2.52" transform="translate(28.94 -6.06) rotate(90)"/><rect id="_Rectangle_4" data-name="&lt;Rectangle&gt;" x="17.24" y="11.33" width="0.52" height="2.52" transform="translate(30.1 -4.91) rotate(90)"/></g></g></g></svg>