<svg xmlns="http://www.w3.org/2000/svg" viewBox="0 0 74.02 74.02"><defs><style>.cls-1{fill:#fff;}</style></defs><title>django</title><g id="Layer_2" data-name="Layer 2"><g id="Layer_1-2" data-name="Layer 1"><rect width="74.02" height="74.02"/><path class="cls-1" d="M13,26.6h3.44V42.48A22.35,22.35,0,0,1,12,43c-4.19,0-6.37-1.89-6.37-5.52s2.31-5.77,5.9-5.77a5.58,5.58,0,0,1,1.49.17V26.6Zm0,8a3.22,3.22,0,0,0-1.15-.18c-1.74,0-2.75,1.07-2.75,2.94a2.5,2.5,0,0,0,2.72,2.83A7.57,7.57,0,0,0,13,40.1Z"/><path class="cls-1" d="M21.91,31.9v8c0,2.74-.2,4-.8,5.19a5.5,5.5,0,0,1-2.81,2.54l-3.18-1.52a5,5,0,0,0,2.72-2.29c.49-1,.64-2.12.64-5.11V31.9Zm-3.43-5.28h3.43v3.52H18.48Z"/><path class="cls-1" d="M24,32.68a10.32,10.32,0,0,1,4.54-1c1.76,0,2.92.46,3.43,1.38a5.26,5.26,0,0,1,.38,2.6v7a38.21,38.21,0,0,1-4.9.38c-2.87,0-4.17-1-4.17-3.23,0-2.41,1.72-3.52,5.93-3.88v-.76c0-.62-.31-.84-1.18-.84a9,9,0,0,0-4,1V32.68Zm5.37,5.46c-2.28.22-3,.58-3,1.47,0,.67.42,1,1.36,1a9.59,9.59,0,0,0,1.65-.15v-2.3Z"/><path class="cls-1" d="M34,32.44a20.38,20.38,0,0,1,5.39-.78,5.12,5.12,0,0,1,3.79,1.18c.72.73.94,1.53.94,3.25v6.73H40.7v-6.6c0-1.31-.45-1.8-1.67-1.8a5.23,5.23,0,0,0-1.59.24v8.16H34V32.44Z"/><path class="cls-1" d="M45.46,44.69a7.89,7.89,0,0,0,3.68.91c2.25,0,3.21-.91,3.21-3.09v-.07a4.76,4.76,0,0,1-2.23.47c-3,0-4.93-2-4.93-5.13,0-3.9,2.83-6.1,7.85-6.1a21.29,21.29,0,0,1,4.48.49l-1.18,2.47c-.91-.17-.07,0-.76-.09v.36l0,1.45,0,1.87c0,.47,0,.93,0,1.4v.94c0,2.94-.25,4.32-1,5.46-1.07,1.67-2.92,2.49-5.55,2.49a9.79,9.79,0,0,1-3.7-.67V44.69Zm6.82-10.25h-.36a3.83,3.83,0,0,0-2,.49,2.68,2.68,0,0,0-1.25,2.52c0,1.71.85,2.7,2.37,2.7a4.13,4.13,0,0,0,1.29-.23V38.74c0-.4,0-.85,0-1.31l0-1.59,0-1.13v-.27Z"/><path class="cls-1" d="M62.84,31.61c3.43,0,5.53,2.16,5.53,5.66s-2.18,5.84-5.66,5.84S57.16,41,57.16,37.47,59.35,31.61,62.84,31.61Zm-.06,8.74c1.31,0,2.09-1.1,2.09-3s-.76-3-2.07-3-2.14,1.1-2.14,3S61.44,40.35,62.78,40.35Z"/></g></g></svg>