<svg xmlns="http://www.w3.org/2000/svg" viewBox="0 0 24.25 24.25"><defs><style>.cls-1{stroke:#404041;stroke-miterlimit:10;stroke-width:0.25px;}.cls-2{fill:#fff;}.cls-3{fill:#1a1a1a;}</style></defs><title>html</title><g id="Layer_2" data-name="Layer 2"><g id="Layer_1-2" data-name="Layer 1"><rect class="cls-1" x="0.13" y="0.13" width="24" height="24"/><polygon class="cls-2" points="7.27 19.16 6.18 7.04 18.07 7.04 16.98 19.16 12.12 20.51 7.27 19.16"/><polygon class="cls-3" points="12.13 12.53 10.16 12.53 10.02 11 12.13 11 12.13 9.52 12.12 9.52 8.4 9.52 8.43 9.91 8.8 14.01 12.13 14.01 12.13 12.53"/><polygon class="cls-3" points="12.13 16.39 12.12 16.39 10.46 15.94 10.36 14.76 9.55 14.76 8.86 14.76 9.07 17.09 12.12 17.94 12.13 17.93 12.13 16.39"/><path class="cls-2" d="M7.29,3.74h.76v.75h.69V3.74h.75V6H8.74V5.24H8.05V6H7.29V3.74Z"/><path class="cls-2" d="M10.49,4.49H9.82V3.74h2.09v.75h-.67V6h-.75V4.49Z"/><path class="cls-2" d="M12.24,3.74H13l.48.8.49-.8h.79V6H14V4.88l-.52.81h0L13,4.88V6h-.74Z"/><path class="cls-2" d="M15.16,3.74h.76V5.25H17V6H15.16Z"/><polygon points="12.12 12.53 12.12 14.01 13.95 14.01 13.78 15.94 12.12 16.39 12.12 17.94 15.17 17.09 15.19 16.84 15.54 12.92 15.58 12.53 15.18 12.53 12.12 12.53"/><polygon points="12.12 9.52 12.12 10.44 12.12 11 12.12 11 15.71 11 15.71 11 15.71 11 15.74 10.67 15.81 9.91 15.85 9.52 12.12 9.52"/></g></g></svg>