<svg xmlns="http://www.w3.org/2000/svg" viewBox="0 0 74.02 74.02"><defs><style>.cls-1{fill:#fff;}</style></defs><title>jquery</title><g id="Layer_2" data-name="Layer 2"><g id="Layer_1-2" data-name="Layer 1"><rect width="74.02" height="74.02"/><path class="cls-1" d="M64.8,31.13l-3.65,5.06-.33-1.32h-2.4s.24,1.2.41,1.81a7.39,7.39,0,0,1,.5,1.82,9.88,9.88,0,0,1-.35,2h2.33a12.41,12.41,0,0,1,.5-1.82,3.3,3.3,0,0,1,.41-.58l5.13-6.94Z"/><path class="cls-1" d="M60,32.49a7.4,7.4,0,0,0-2.77-.18H55.59c-1,0-1.61-.06-1.71.33-.32,1.2-1.66,7.85-1.66,7.85h2.15l1.41-6.12h1.15c1.34,0,3.8,0,3.8,0S60.44,32.77,60,32.49Z"/><path class="cls-1" d="M51.75,33.14a2.81,2.81,0,0,0-2-.91,5.42,5.42,0,0,0-3.72.83,2.83,2.83,0,0,0-.58.49,2,2,0,0,0-.18.23c0,.07-.11.11-.15.18s-.14.3-.23.48-.13.3-.18.43c-.45,1.12-.91,3.21-.5,4.3a2.27,2.27,0,0,0,.24.43c.06.07.11.16.17.23a1.93,1.93,0,0,0,.91.5,26.63,26.63,0,0,0,5.37.24l.44-1.94a29.87,29.87,0,0,1-3.74,0,1.92,1.92,0,0,1-.95-.27c-.22-.2-.49-.67-.29-1s.69-.15,1.15-.16c1.5,0,4.22,0,4.22,0A10.24,10.24,0,0,0,52,33.88,2.92,2.92,0,0,0,51.75,33.14ZM50,35.47l-3.2,0s0-1.38,1.83-1.32c.66,0,.89.11,1.14.5A1.26,1.26,0,0,1,50,35.47Z"/><path class="cls-1" d="M42.14,32.3l-1.48,6.2H39.58c-.79,0-1,0-1.24-.41a2.48,2.48,0,0,1,.08-1.41c.26-1.46.87-4.39.87-4.39l-2.16,0-.61,2.8c-.27,1.3-.86,3.22-.24,4.38s2.12,1,3.8,1h2.39c.6-2.69,1.76-8.2,1.76-8.2Z"/><path class="cls-1" d="M35.28,33.21a3.52,3.52,0,0,0-1.39-2.34,1.41,1.41,0,0,0-.18-.14,5.1,5.1,0,0,0-1.81-.57,5.2,5.2,0,0,0-5.46,2.64A8.18,8.18,0,0,0,25.62,35a7.72,7.72,0,0,0-.25,2.81,3.55,3.55,0,0,0,.83,1.82c1.09,1.14,3.24,1,5.53,1l2.9,0a6.53,6.53,0,0,0,.59-2s-.6,0-1.24,0C34.61,36.85,35.52,34.94,35.28,33.21Zm-2.89,3.06c-.21.74-.41,1.49-.66,2.15-1.67,0-3.22.22-3.72-.83a3.65,3.65,0,0,1,0-2.15,4.62,4.62,0,0,1,1-2.39,2.76,2.76,0,0,1,2.81-.66A2,2,0,0,1,32.89,34,7.81,7.81,0,0,1,32.39,36.27Z"/><path class="cls-1" d="M22.39,34.29h2.32c.14-.63.28-1.34.42-2H22.89C22.71,32.91,22.57,33.6,22.39,34.29Z"/><path class="cls-1" d="M21.4,38.67c-.34,1.6-.38,3.27-2.15,3-.16.62-.38,1.45-.57,2.15a16.3,16.3,0,0,0,2,0,3.15,3.15,0,0,0,1.16-.33c.05,0,.09,0,.16-.08a4.12,4.12,0,0,0,1.24-2.56c.45-1.81,1-4.42,1.32-6H22.31C22.2,35.24,21.6,37.74,21.4,38.67Z"/><path class="cls-1" d="M7.82,33.37l0-.16s.21-.37.18-.37a4.68,4.68,0,0,0-.76,5.66,6.39,6.39,0,0,0,3,2.81,6,6,0,0,0,2.48.5,4.7,4.7,0,0,0,4.32-2.61l.05-.12A5,5,0,0,1,14.3,40.4C10.47,40.79,6.54,37.37,7.82,33.37Z"/><path class="cls-1" d="M10.5,32.8a2.88,2.88,0,0,1,.36-1.06,3.65,3.65,0,0,0-1,2.88,4.36,4.36,0,0,0,3.48,3.63c2,.27,3.52-.58,4-1.9a3.69,3.69,0,0,1-2.56,1.08A4.36,4.36,0,0,1,10.5,32.8Z"/><path class="cls-1" d="M12.89,34a2.66,2.66,0,0,0,3,1.2,3,3,0,0,0,1.39-1.07,2.51,2.51,0,0,1-2.47.47,2,2,0,0,1-.46-.22,2.29,2.29,0,0,1-.91-.8,3.35,3.35,0,0,1-.4-.87,2.81,2.81,0,0,1,.11-1.44,2.28,2.28,0,0,0-.48,2.19A5.71,5.71,0,0,0,12.89,34Z"/></g></g></svg>