<svg xmlns="http://www.w3.org/2000/svg" viewBox="0 0 24 24"><defs><style>.cls-1{fill:#fff;}</style></defs><title>JS</title><g id="Layer_2" data-name="Layer 2"><g id="Layer_1-2" data-name="Layer 1"><rect width="24" height="24"/><path class="cls-1" d="M13.54,17.86,15,17c.14.17.26.35.4.5a1.87,1.87,0,0,0,2,.5.83.83,0,0,0,.61-.63.73.73,0,0,0-.21-.76,2.36,2.36,0,0,0-.53-.36c-.37-.18-.75-.32-1.11-.5a7.91,7.91,0,0,1-1-.52A2.44,2.44,0,0,1,14.09,13a2.31,2.31,0,0,1,1.82-2.27,3.4,3.4,0,0,1,2.16.12,2.64,2.64,0,0,1,1.27,1.2s0,0,0,0l-1.41.9-.13-.2a1.16,1.16,0,0,0-1.35-.53.79.79,0,0,0-.35,1.31,2.26,2.26,0,0,0,.45.31c.34.17.68.31,1,.46a6.2,6.2,0,0,1,1.39.8A2.38,2.38,0,0,1,19.89,17a2.56,2.56,0,0,1-.3,1.41,2.32,2.32,0,0,1-1.34,1.08,4.17,4.17,0,0,1-3.45-.3A3.14,3.14,0,0,1,13.54,17.86Z"/><path class="cls-1" d="M7.1,18.05l1.48-.89c.06.09.11.18.16.27a1.45,1.45,0,0,0,.43.49,1.15,1.15,0,0,0,1.16,0,.72.72,0,0,0,.36-.61,2.59,2.59,0,0,0,0-.48V10.75h1.82a.41.41,0,0,1,0,.11v6a3.83,3.83,0,0,1-.17,1.22A2.18,2.18,0,0,1,11,19.55a3.38,3.38,0,0,1-2.48-.1A2.67,2.67,0,0,1,7.12,18.1.06.06,0,0,1,7.1,18.05Z"/></g></g></svg>