<svg xmlns="http://www.w3.org/2000/svg" viewBox="0 0 74.02 74.02"><defs><style>.cls-1{fill:#fff;}</style></defs><title>less_1</title><g id="Layer_2" data-name="Layer 2"><g id="Layer_1-2" data-name="Layer 1"><rect width="74.02" height="74.02"/><path class="cls-1" d="M57.84,33.78c0-1.45.22-2.31.22-3.88,0-2.44-.9-3.22-2.88-3.22H53.72v.09A3.78,3.78,0,0,1,57,30.47V42.38a3.79,3.79,0,0,1-3.26,3.7v.08h1.46c2,0,2.88-.78,2.88-3.21,0-1.61-.22-2.43-.22-3.89,0-.79.48-1.61,1.94-1.69V35.43C58.32,35.39,57.84,34.57,57.84,33.78Z"/><path class="cls-1" d="M57,42.38v-6c-1.12.26-1.68.94-1.68,2.66,0,1.34.11,2.43.11,3.66s-.26,1.61-1.24,1.61v0h-.45v1.71A3.79,3.79,0,0,0,57,42.38Z"/><path class="cls-1" d="M54.17,28.4c1,0,1.24.34,1.24,1.57s-.11,2.32-.11,3.66c0,1.72.56,2.4,1.68,2.66V30.47a3.78,3.78,0,0,0-3.26-3.7V28.4Z"/><path class="cls-1" d="M41.27,36.07c-1.16-.45-2.2-.72-2.2-1.46,0-.56.44-.9,1.27-.9a4.08,4.08,0,0,1,2.39.93l1.5-2A6.38,6.38,0,0,0,40.3,31.2c-2.54,0-4.26,1.46-4.26,3.52,0,1.83,1.6,2.77,3,3.29,1.16.45,2.28.82,2.28,1.57,0,.56-.45.94-1.46.94a4.73,4.73,0,0,1-2.88-1.16l-1.45,2.17a7.22,7.22,0,0,0,4.26,1.57c3,0,4.6-1.57,4.6-3.63S42.73,36.55,41.27,36.07Z"/><path class="cls-1" d="M50.32,36.07c-1.12-.45-2.17-.72-2.17-1.46,0-.56.45-.9,1.27-.9a4.1,4.1,0,0,1,2.4.93l1.49-2a6.33,6.33,0,0,0-3.92-1.46c-2.55,0-4.27,1.46-4.27,3.52,0,1.83,1.61,2.77,3,3.29,1.16.45,2.28.82,2.28,1.57,0,.56-.45.94-1.46.94A4.73,4.73,0,0,1,46,39.36l-1.49,2.17a7.22,7.22,0,0,0,4.26,1.57c3,0,4.6-1.57,4.6-3.63S51.78,36.55,50.32,36.07Z"/><path class="cls-1" d="M30.24,31.17A5.44,5.44,0,0,0,25,37c0,3.7,2.43,5.87,5.64,5.87a7.51,7.51,0,0,0,4-1.27l-1.13-2a4.69,4.69,0,0,1-2.43.71,2.73,2.73,0,0,1-2.95-2.43h6.77A11.24,11.24,0,0,0,35,36.55C35,33.52,33.38,31.17,30.24,31.17Zm-2.13,4.71c.22-1.5,1.12-2.21,2.17-2.21,1.34,0,1.87.94,1.87,2.21Z"/><path class="cls-1" d="M17.12,42.38V36.46l-.08,0v-.11l.08,0V30.47A3.8,3.8,0,0,1,21,26.73h3.23v-.05H18.87c-2,0-2.91.78-2.91,3.22,0,1.6.22,2.5.22,3.88,0,.79-.49,1.61-1.94,1.69v1.94c1.45,0,1.94.86,1.94,1.65,0,1.38-.22,2.2-.22,3.81,0,2.43.89,3.22,2.87,3.22h1.46v0A3.77,3.77,0,0,1,17.12,42.38Z"/><path class="cls-1" d="M19.84,44.37c-.93,0-1.23-.38-1.23-1.61s.11-2.28.11-3.67c0-1.67-.53-2.35-1.6-2.63v5.92a3.77,3.77,0,0,0,3.17,3.68V44.37Z"/><path class="cls-1" d="M17.12,30.47v5.84c1.07-.28,1.6-1,1.6-2.64,0-1.34-.11-2.43-.11-3.66s.26-1.57,1.23-1.57h1V39.17c0,2.28.79,3.78,3.07,3.78a4.9,4.9,0,0,0,1.68-.27l-.37-2.43a2.19,2.19,0,0,1-.45,0c-.26,0-.6-.22-.6-.93V26.73H21A3.8,3.8,0,0,0,17.12,30.47Z"/></g></g></svg>