<svg xmlns="http://www.w3.org/2000/svg" viewBox="0 0 24 24"><defs><style>.cls-1,.cls-2{fill:#fff;}.cls-2{fill-rule:evenodd;}</style></defs><title>Mean</title><g id="Layer_2" data-name="Layer 2"><g id="Layer_1-2" data-name="Layer 1"><rect width="24" height="24"/><path class="cls-1" d="M12.55,12.44a1.67,1.67,0,0,1-.75,1.06,2,2,0,0,1-1.13.26,1.8,1.8,0,0,1-1.88-1.94,1.93,1.93,0,0,1,2-2.16c1.21,0,1.81.89,1.81,2.26H9.54a1.12,1.12,0,0,0,1.22,1.28,1,1,0,0,0,1.08-.76Zm-.67-1a1.09,1.09,0,0,0-1.17-1.16,1.19,1.19,0,0,0-1.17,1.16Z"/><path class="cls-1" d="M17.89,10.3c-.06.52-.12,1-.18,1.51,0,.31-.07.62-.11.93a.16.16,0,0,1-.07.11L16,13.67a.14.14,0,0,1-.15,0l-1.47-.82a.15.15,0,0,1-.08-.12L14.13,11c0-.21,0-.42-.07-.63a.11.11,0,0,1,.08-.14l1.75-.62h.16l1.75.62A.35.35,0,0,1,17.89,10.3Zm-.71,2.44L16,10l-1.21,2.72h.36a.11.11,0,0,0,.14-.09c.05-.14.12-.29.17-.44a.11.11,0,0,1,.12-.08h.84a.12.12,0,0,1,.12.08,3.66,3.66,0,0,0,.18.46s0,.07.07.07Z"/><path d="M17.18,12.74h-.42s-.06,0-.07-.07a3.66,3.66,0,0,1-.18-.46.12.12,0,0,0-.12-.08h-.84a.11.11,0,0,0-.12.08c0,.15-.12.3-.17.44a.11.11,0,0,1-.14.09h-.36L16,10Zm-.87-1L16,10.93l-.34.82Z"/><path class="cls-1" d="M16.31,11.75h-.68l.34-.82Z"/><path class="cls-2" d="M22.68,10.69a.19.19,0,0,0-.09-.16L21,9.63l-.08,0h0l-.09,0-1.55.9a.18.18,0,0,0-.1.16V13.1a.1.1,0,0,0,.05.08.07.07,0,0,0,.09,0l.92-.53a.18.18,0,0,0,.1-.16V11.36a.18.18,0,0,1,.09-.16l.39-.23.1,0L21,11l.39.23a.19.19,0,0,1,.1.16v1.13a.17.17,0,0,0,.09.16l.93.53a.07.07,0,0,0,.09,0,.1.1,0,0,0,.05-.08Z"/><path class="cls-1" d="M3,11.79c0,.29,0,.58,0,.87a.3.3,0,0,0,.31.36l.11,0c.11,0,.12.09.11.18a.14.14,0,0,1-.16.13,10.16,10.16,0,0,0-1.46,0c-.08,0-.16,0-.16-.1s0-.17.1-.21c.46-.15.46-.16.47-.66s0-1,0-1.46,0-.39-.36-.54c-.09,0-.28,0-.26-.18s.19-.1.3-.13c.27-.07.55-.13.81-.22S3,9.82,3,10s-.07.26,0,.31.2-.09.29-.15a3.61,3.61,0,0,1,.56-.27A.91.91,0,0,1,5,10.21c.11.16.18.16.32,0A4.12,4.12,0,0,1,5.74,10a1.08,1.08,0,0,1,1.68.88,14.39,14.39,0,0,1,0,1.61c0,.45,0,.45.43.56.09,0,.16,0,.14.17s-.07.16-.19.15a11.21,11.21,0,0,0-1.42,0c-.08,0-.15,0-.15-.1s0-.17.11-.21c.38-.14.38-.14.38-.56s0-.87,0-1.31a.74.74,0,0,0-.5-.76,1,1,0,0,0-1,.22c-.06,0-.06.09-.06.15,0,.62,0,1.23,0,1.84,0,.24.08.37.32.4h.08a.15.15,0,0,1,.14.18c0,.12-.07.15-.18.14H4.16c-.09,0-.17,0-.19-.11s0-.19.14-.21l.15,0a.27.27,0,0,0,.26-.29,14.59,14.59,0,0,0,0-1.62.72.72,0,0,0-.5-.73,1.06,1.06,0,0,0-1,.27c-.08.06-.07.17-.07.27v.88Z"/></g></g></svg>