<svg xmlns="http://www.w3.org/2000/svg" viewBox="0 0 74.02 74.02"><defs><style>.cls-1{fill:#fff;}</style></defs><title>mysql</title><g id="Layer_2" data-name="Layer 2"><g id="Layer_1-2" data-name="Layer 1"><rect width="74.02" height="74.02"/><path class="cls-1" d="M21.25,47.34H18.84q-.14-6.11-.71-11.49h0L14.43,47.34H12.6L8.94,35.85h0Q8.52,41,8.41,47.34H6.21q.21-7.68,1.07-14.42h3l3.48,10.6h0l3.51-10.6h2.86q.95,7.89,1.11,14.42M31.72,36.7q-1.47,8-3.89,11.63c-1.25,1.86-2.63,2.8-4.12,2.8a4.25,4.25,0,0,1-1.48-.36V49.48a7.41,7.41,0,0,0,1,.06A2.43,2.43,0,0,0,24.92,49a2.09,2.09,0,0,0,.77-1.58,10.49,10.49,0,0,0-.6-2.46L22.45,36.7h2.37l1.9,6.16a8.2,8.2,0,0,1,.53,2.92,39.83,39.83,0,0,0,2.18-9.08Z"/><path class="cls-1" d="M63.85,47.34H57V32.92H59.3V45.57h4.55Zm-8.65.35-2.65-1.31a5,5,0,0,0,.66-.64q1.7-2,1.69-5.87,0-7.17-5.62-7.16A5.3,5.3,0,0,0,45,34.52a8.83,8.83,0,0,0-1.69,5.86q0,3.79,1.49,5.57a5.13,5.13,0,0,0,4.13,1.61,6.69,6.69,0,0,0,1.89-.26l3.45,2Zm-8.59-3.23a8.94,8.94,0,0,1-.88-4.53q0-5.44,3.32-5.45a2.79,2.79,0,0,1,2.54,1.3,8.86,8.86,0,0,1,.87,4.49q0,5.49-3.31,5.49a2.77,2.77,0,0,1-2.54-1.3m-4.32-1.11a3.85,3.85,0,0,1-1.34,3,5.31,5.31,0,0,1-3.61,1.17,7.25,7.25,0,0,1-4.1-1.34L33.86,45A7,7,0,0,0,37,45.8a3.26,3.26,0,0,0,2-.57,2,2,0,0,0,.79-1.6c0-.86-.6-1.59-1.7-2.21s-3-1.71-3-1.71a3.47,3.47,0,0,1-1.64-3.07,3.58,3.58,0,0,1,1.23-2.83,4.6,4.6,0,0,1,3.17-1.08,6.58,6.58,0,0,1,3.65,1.07L40.9,35a7,7,0,0,0-2.77-.6,2.52,2.52,0,0,0-1.71.53,1.8,1.8,0,0,0-.65,1.37c0,.85.61,1.6,1.74,2.22s3.1,1.74,3.1,1.74a3.42,3.42,0,0,1,1.68,3.05"/><path class="cls-1" d="M66.75,28.09a8.24,8.24,0,0,0-3.39.49c-.26.1-.67.1-.71.43.14.14.16.37.28.56a3.85,3.85,0,0,0,.91,1.06c.36.28.73.56,1.11.81.68.42,1.45.66,2.11,1.08.38.24.77.55,1.15.82.19.14.31.36.56.45v0c-.12-.16-.16-.39-.28-.56L68,32.67a8.43,8.43,0,0,0-1.82-1.76c-.55-.38-1.77-.9-2-1.55l0,0a8.35,8.35,0,0,0,1.2-.28c.59-.16,1.13-.12,1.74-.28l.84-.24v-.16c-.32-.31-.54-.73-.87-1a24.43,24.43,0,0,0-2.88-2.14,20.06,20.06,0,0,0-1.81-.87c-.21-.11-.56-.16-.68-.33a7.56,7.56,0,0,1-.72-1.35c-.5-.95-1-2-1.43-3a17.73,17.73,0,0,0-.88-2,17.55,17.55,0,0,0-6.75-6.52,8.46,8.46,0,0,0-2.23-.72l-1.3-.07a6.86,6.86,0,0,1-.81-.61c-1-.62-3.55-2-4.28-.19-.47,1.14.69,2.25,1.1,2.83a8,8,0,0,1,.88,1.3c.13.3.16.61.28.93a20.46,20.46,0,0,0,.91,2.33A8.3,8.3,0,0,0,47.07,18c.14.19.39.28.44.59a5.15,5.15,0,0,0-.4,1.31,7.72,7.72,0,0,0,.5,5.86c.28.43,1,1.39,1.83,1s.61-1.3.84-2.17c0-.22,0-.35.12-.49v0c.25.49.49,1,.72,1.45a10,10,0,0,0,2.26,2.33c.42.32.75.86,1.27,1.05v-.05h0a1.9,1.9,0,0,0-.4-.35,8.15,8.15,0,0,1-.91-1,22.41,22.41,0,0,1-2-3.17c-.28-.54-.52-1.13-.75-1.67-.1-.21-.1-.52-.28-.63a6.74,6.74,0,0,0-.83,1.18A9.92,9.92,0,0,0,49,25.88l-.07,0c-.56-.14-.75-.71-1-1.2a7.57,7.57,0,0,1-.16-4.65c.12-.37.65-1.52.44-1.87s-.45-.52-.64-.78A6.18,6.18,0,0,1,47,16.29c-.42-1-.63-2-1.08-3A10.21,10.21,0,0,0,45,11.92a8.49,8.49,0,0,1-1-1.36c-.09-.19-.21-.5-.07-.71a.27.27,0,0,1,.24-.23c.23-.19.87.05,1.1.16a8.15,8.15,0,0,1,1.72.87c.25.17.51.5.82.59h.37c.56.12,1.18,0,1.71.19a11.42,11.42,0,0,1,2.51,1.2,15.52,15.52,0,0,1,5.43,6c.21.4.3.77.49,1.19.37.85.82,1.72,1.19,2.56a11.56,11.56,0,0,0,1.23,2.34c.26.36,1.31.55,1.78.74s.89.3,1.2.49c.6.37,1.19.79,1.74,1.19.28.21,1.15.64,1.21,1M49,13a2.43,2.43,0,0,0-.71.09v0h0a6.6,6.6,0,0,0,.56.72c.14.27.26.55.4.83l0,0a1,1,0,0,0,.37-.88c-.1-.12-.12-.24-.21-.36s-.33-.26-.47-.4"/></g></g></svg>