<svg xmlns="http://www.w3.org/2000/svg" viewBox="0 0 24 24.25"><defs><style>.cls-1{fill:#fff;}</style></defs><title>Net</title><g id="Layer_2" data-name="Layer 2"><g id="Layer_1-2" data-name="Layer 1"><rect width="24" height="24.25"/><path id="_Compound_Path_" data-name="&lt;Compound Path&gt;" class="cls-1" d="M19.17,7.91a.12.12,0,0,0,0-.07s-.06,0-.11,0H19V8h.08C19.13,8,19.17,8,19.17,7.91Zm.11.39h-.1l-.06-.13c0-.07-.06-.1-.09-.1H19V8.3H18.9V7.75h.15a.21.21,0,0,1,.16,0,.12.12,0,0,1,0,.1.12.12,0,0,1,0,.09.2.2,0,0,1-.11.06h0s.07,0,.1.1l.07.15ZM19.45,8a.37.37,0,0,0-.11-.27.4.4,0,0,0-.27-.11.37.37,0,0,0-.27.11.33.33,0,0,0-.11.27.37.37,0,0,0,.11.27.33.33,0,0,0,.27.11.36.36,0,0,0,.27-.11A.37.37,0,0,0,19.45,8Zm.05,0a.38.38,0,0,1-.13.3.41.41,0,0,1-.3.12.41.41,0,0,1-.31-.12.44.44,0,0,1,0-.6.4.4,0,0,1,.31-.13.41.41,0,0,1,.3.12A.39.39,0,0,1,19.5,8Z"/><path id="_Path_" data-name="&lt;Path&gt;" class="cls-1" d="M7.78,9.56H7.52V8c0-.12,0-.26,0-.43h0a1.29,1.29,0,0,1-.06.22L6.69,9.56H6.57L5.79,7.83s0-.13-.07-.23h0c0,.09,0,.23,0,.44V9.56H5.48V7.29h.35l.69,1.58a1.61,1.61,0,0,1,.1.27h0l.11-.28.71-1.57h.33V9.56Z"/><path id="_Compound_Path_2" data-name="&lt;Compound Path&gt;" class="cls-1" d="M8.6,9.56H8.34V7.94H8.6Zm.05-2.2a.17.17,0,0,1-.05.12.21.21,0,0,1-.12,0,.17.17,0,0,1-.12,0,.17.17,0,0,1,0-.24.17.17,0,0,1,.12,0,.21.21,0,0,1,.12,0A.17.17,0,0,1,8.65,7.36Z"/><path id="_Path_2" data-name="&lt;Path&gt;" class="cls-1" d="M10.22,9.48a.84.84,0,0,1-.45.11.7.7,0,0,1-.56-.23A.8.8,0,0,1,9,8.79a.94.94,0,0,1,.23-.65.81.81,0,0,1,.61-.24.89.89,0,0,1,.38.08v.27a.63.63,0,0,0-.39-.13.54.54,0,0,0-.4.17.67.67,0,0,0-.16.47.64.64,0,0,0,.15.45.51.51,0,0,0,.4.16.63.63,0,0,0,.4-.14Z"/><path id="_Path_3" data-name="&lt;Path&gt;" class="cls-1" d="M11.45,8.2a.37.37,0,0,0-.2,0,.33.33,0,0,0-.26.14.72.72,0,0,0-.12.44v.83h-.26V7.94h.26v.33h0A.54.54,0,0,1,11.05,8a.37.37,0,0,1,.25-.09l.15,0V8.2Z"/><path id="_Compound_Path_3" data-name="&lt;Compound Path&gt;" class="cls-1" d="M12.89,8.75a.65.65,0,0,0-.14-.47.45.45,0,0,0-.38-.16.46.46,0,0,0-.38.16.78.78,0,0,0,0,.93.5.5,0,0,0,.39.16.47.47,0,0,0,.39-.16.7.7,0,0,0,.13-.46m.27,0a.84.84,0,0,1-.22.62.75.75,0,0,1-.59.23.71.71,0,0,1-.57-.23.84.84,0,0,1-.21-.59.91.91,0,0,1,.23-.66.84.84,0,0,1,.59-.21.74.74,0,0,1,.57.22.92.92,0,0,1,.2.62"/><path id="_Path_4" data-name="&lt;Path&gt;" class="cls-1" d="M14.44,9.12a.41.41,0,0,1-.15.33.61.61,0,0,1-.44.14.84.84,0,0,1-.4-.09V9.22a.64.64,0,0,0,.42.15c.2,0,.31-.07.31-.22A.22.22,0,0,0,14.11,9a1.44,1.44,0,0,0-.27-.15,1,1,0,0,1-.29-.18.46.46,0,0,1-.1-.29A.41.41,0,0,1,13.61,8,.61.61,0,0,1,14,7.9a.78.78,0,0,1,.35.07v.27A.61.61,0,0,0,14,8.12a.35.35,0,0,0-.21.06.22.22,0,0,0-.07.17.21.21,0,0,0,.06.16,1.07,1.07,0,0,0,.24.14.7.7,0,0,1,.3.18.37.37,0,0,1,.12.29"/><path id="_Compound_Path_4" data-name="&lt;Compound Path&gt;" class="cls-1" d="M16,8.75a.65.65,0,0,0-.14-.47.45.45,0,0,0-.38-.16.46.46,0,0,0-.38.16.78.78,0,0,0,0,.93.5.5,0,0,0,.39.16.47.47,0,0,0,.39-.16A.7.7,0,0,0,16,8.75m.27,0a.84.84,0,0,1-.22.62.74.74,0,0,1-.59.23.71.71,0,0,1-.57-.23.84.84,0,0,1-.21-.59.91.91,0,0,1,.23-.66.84.84,0,0,1,.59-.21.74.74,0,0,1,.57.22.92.92,0,0,1,.2.62"/><path id="_Path_5" data-name="&lt;Path&gt;" class="cls-1" d="M17.43,7.39a.33.33,0,0,0-.17,0c-.18,0-.27.11-.27.34v.25h.38v.22H17v1.4h-.26V8.16h-.28V7.94h.28V7.68a.54.54,0,0,1,.16-.42.49.49,0,0,1,.35-.13.5.5,0,0,1,.19,0Z"/><path id="_Path_6" data-name="&lt;Path&gt;" class="cls-1" d="M18.45,9.54a.54.54,0,0,1-.24.05c-.28,0-.43-.16-.43-.48V8.16h-.27V7.94h.27v-.4L18,7.46v.48h.41v.22H18v.91a.33.33,0,0,0,.06.23.21.21,0,0,0,.18.07.31.31,0,0,0,.17,0Z"/><path id="_Path_7" data-name="&lt;Path&gt;" class="cls-1" d="M4.46,15.87a.41.41,0,0,1-.14.32.42.42,0,0,1-.33.14.41.41,0,0,1-.32-.14.44.44,0,0,1-.13-.32.48.48,0,0,1,.13-.34A.44.44,0,0,1,4,15.4a.48.48,0,0,1,.47.47"/><path id="_Path_8" data-name="&lt;Path&gt;" class="cls-1" d="M10.26,16.24H9.41L6.35,11.51a2.25,2.25,0,0,1-.19-.38h0a6.83,6.83,0,0,1,0,.82v4.29h-.7V10.3h.91l3,4.66a4.06,4.06,0,0,1,.24.4h0a5.8,5.8,0,0,1,0-.88V10.3h.7v5.94Z"/><polygon id="_Path_9" data-name="&lt;Path&gt;" class="cls-1" points="14.72 16.24 11.57 16.24 11.57 10.3 14.58 10.3 14.58 10.93 12.27 10.93 12.27 12.9 14.41 12.9 14.41 13.54 12.27 13.54 12.27 15.61 14.72 15.61 14.72 16.24"/><polygon id="_Path_10" data-name="&lt;Path&gt;" class="cls-1" points="19.49 10.93 17.78 10.93 17.78 16.24 17.08 16.24 17.08 10.93 15.37 10.93 15.37 10.3 19.49 10.3 19.49 10.93"/></g></g></svg>