<svg xmlns="http://www.w3.org/2000/svg" viewBox="0 0 74.02 74.02"><defs><style>.cls-1{fill:#fff;}</style></defs><title>python</title><g id="Layer_2" data-name="Layer 2"><g id="Layer_1-2" data-name="Layer 1"><rect width="74.02" height="74.02"/><path class="cls-1" d="M19.09,51a.63.63,0,0,1,0-.3v-.07a.39.39,0,0,1,0-.21l-.15-.6A5.3,5.3,0,0,0,18,47.89l-.26-.28h0a1.18,1.18,0,0,1-.27-.23l-.13-.1h0A3.5,3.5,0,0,0,16,46.79a.57.57,0,0,1-.26,0h-.55l-.35,0a.77.77,0,0,1-.3,0,8.1,8.1,0,0,0-1.62.37.31.31,0,0,1-.21.07l-.19.09s-.08.06-.14.08h0a3.7,3.7,0,0,0-.9.57,1.11,1.11,0,0,1-.27.26h0s0,0,0,0a.48.48,0,0,0-.08.35v12c0,.06.1,0,.14.06.46.15.9.34,1.37.47a.36.36,0,0,0,0-.1.66.66,0,0,0,0-.14c0-1.68,0-3.36,0-5,0,0-.09-.2.09-.12a5,5,0,0,0,2,.74.41.41,0,0,1,.22,0h.74a.59.59,0,0,1,.26,0A3.59,3.59,0,0,0,17.18,56l.36-.26h0l.4-.39.13-.16s.06-.07.08-.1c.2-.26.33-.56.5-.83a.24.24,0,0,1,.07-.17l.25-.81c0-.06,0-.12,0-.16a.91.91,0,0,1,.05-.33.32.32,0,0,1,0-.21h0V51Zm-1.75.58a7.07,7.07,0,0,1-.26,2.13,2.24,2.24,0,0,1-2.93,1.6,5.65,5.65,0,0,1-1.42-.63.22.22,0,0,1-.13-.22V48.68a.25.25,0,0,1,.11-.25,3.87,3.87,0,0,1,2.94-.57A1.81,1.81,0,0,1,16.89,49a5,5,0,0,1,.41,1.75A5.94,5.94,0,0,1,17.34,51.53Z"/><path class="cls-1" d="M28.56,47.23c0-.21,0-.26-.25-.25-.43,0-.87,0-1.3,0,0,.14,0,.29,0,.43,0,2.25,0,4.51,0,6.76a.48.48,0,0,1-.3.52l-.12.07a4,4,0,0,1-1.58.56.74.74,0,0,1-.33,0h-.09a.74.74,0,0,1-.33,0h0c-.09,0-.19,0-.28,0a.4.4,0,0,1-.28-.08h0a.81.81,0,0,1-.37-.15.7.7,0,0,1-.25-.17c-.06,0-.12-.05-.15-.12l-.13-.13a1.76,1.76,0,0,1-.48-1.23c0-1.79,0-3.58,0-5.37V46.9c0-.13,0-.16-.15-.11l-.76.25c-.22.08-.5.11-.64.27s0,.39,0,.6v0c0,1.94,0,3.88,0,5.82A2.36,2.36,0,0,0,21.12,55a.53.53,0,0,1,.17.23h0a.11.11,0,0,1,.07.09,2.76,2.76,0,0,0,.65.58.14.14,0,0,1,.11.07,2.34,2.34,0,0,0,.91.37c.06,0,.12,0,.16,0h0a.46.46,0,0,1,.26,0h.78a.8.8,0,0,1,.34,0h.08a.3.3,0,0,1,.21,0,8.09,8.09,0,0,0,2.19-.64v1.12a.93.93,0,0,1,0,.33h0v.2a.39.39,0,0,1,0,.21h0v.11a1,1,0,0,1-.06.34h0a.83.83,0,0,0,0,.15,2,2,0,0,1-.67,1c0,.06-.06.08-.11.11h0l-.1,0a.13.13,0,0,1-.11.08,4.36,4.36,0,0,1-.77.33.54.54,0,0,1-.28.08c-.13,0-.24.1-.37.08a.28.28,0,0,1-.2,0l-.93.16c-.1,0-.14,0-.1.14a3.45,3.45,0,0,1,.12.46c.07.37.08.37.46.38a.73.73,0,0,1,.33,0h.11a.39.39,0,0,1,.21,0h0l.32,0s.08,0,.13,0c.29-.09.59-.14.88-.25a5.25,5.25,0,0,0,1.6-.89l.16-.14h0a3.9,3.9,0,0,0,.57-.88l.08-.17h0c.11-.42.18-.86.25-1.29a.37.37,0,0,1,0-.21h0v-.19a1.2,1.2,0,0,1,0-.38h0V47.23Zm0,8.49h0V47.28h0Z"/><path class="cls-1" d="M44,56v-6.2c0-.14,0-.29,0-.43h0a6.24,6.24,0,0,0-.22-.85l-.08-.16h0a.86.86,0,0,1-.07-.1,2.49,2.49,0,0,0-1.07-1.06A4.82,4.82,0,0,0,41.8,47a.41.41,0,0,1-.22,0h-.82a.58.58,0,0,1-.26,0l-.93.21a.52.52,0,0,1-.21.07l-.49.21a.5.5,0,0,1-.24.12L38,48V41.7c0-.16,0-.22-.2-.15-.43.15-.88.27-1.33.41,0,.09,0,.17,0,.26V56c0,.08,0,.15,0,.22h1.32c.17,0,.21,0,.21-.21V49.25a.24.24,0,0,1,.1-.24,11.39,11.39,0,0,1,1.28-.72.29.29,0,0,1,.2-.07,2.27,2.27,0,0,1,.76-.21.28.28,0,0,1,.22,0h.16A.39.39,0,0,1,41,48h0a1.61,1.61,0,0,1,.64.29c.06,0,.09,0,.11.08h0a.46.46,0,0,1,.15.16h0c0,.09.13.13.14.24a2.8,2.8,0,0,1,.32.73.17.17,0,0,1,0,.17c0,.16.08.31,0,.47s0,.16,0,.24V56a.57.57,0,0,0,0,.26h1.48A.5.5,0,0,0,44,56Z"/><path class="cls-1" d="M53.9,51.42h0a2.85,2.85,0,0,1,0-.5v-.19a.34.34,0,0,1,0-.22,2.33,2.33,0,0,1-.08-.38A5.64,5.64,0,0,0,53,48.42l-.21-.28-.36-.37-.13-.12-.07-.06-.14-.1h0a0,0,0,0,1,0,0L52,47.4a4.4,4.4,0,0,0-2.11-.66H49.4a7.14,7.14,0,0,0-1,.17,3.39,3.39,0,0,0-1.31.7s-.05.07-.1.07a4.57,4.57,0,0,0-.79.91,4.8,4.8,0,0,0-.72,1.94.34.34,0,0,1,0,.22h0v1.44a.3.3,0,0,1,0,.21,4.8,4.8,0,0,0,.7,2.09.38.38,0,0,1,.11.18l.13.18a.55.55,0,0,1,.17.23,5,5,0,0,0,.56.57c.08,0,.13.07.18.11h0a0,0,0,0,1,0,0l.1.07h0l.27.17a.16.16,0,0,1,.16.07h0a2.64,2.64,0,0,0,1,.29.31.31,0,0,1,.21,0h1.15a.43.43,0,0,1,.22,0h.08s.08,0,.12,0a5,5,0,0,0,.77-.25l.17-.08.33-.2.19-.14h0c0-.05.1-.12.17-.14l.16-.14a9.24,9.24,0,0,0,.68-.84l.13-.22h0a7.94,7.94,0,0,0,.54-1.4c0-.06,0-.12,0-.17a.86.86,0,0,1,0-.32.41.41,0,0,1,0-.22h0v-.11a5.31,5.31,0,0,1,0-.69ZM51.8,54a2.26,2.26,0,0,1-2.88,1.38,2.22,2.22,0,0,1-1.35-1.31,6.32,6.32,0,0,1-.49-2.94,4.93,4.93,0,0,1,.33-1.78,2.34,2.34,0,0,1,4.29-.21,5,5,0,0,1,.5,2.42A7.06,7.06,0,0,1,51.8,54Z"/><path class="cls-1" d="M62.6,48.3l-.09-.17a2.69,2.69,0,0,0-1.27-1.08,5.24,5.24,0,0,0-.88-.26.55.55,0,0,1-.25,0h-1a2.8,2.8,0,0,1-.57.08.69.69,0,0,1-.24.05.25.25,0,0,1-.17,0c-.14.05-.31.05-.44.1a7.39,7.39,0,0,0-1.52.67.14.14,0,0,1-.15.08l-.31.22a.12.12,0,0,1-.1.06l-.3.22a.41.41,0,0,0,0,.22v7.57c0,.07,0,.14,0,.2h1.32c.17,0,.22,0,.21-.21V49.57c0-.34,0-.69,0-1,0-.1,0-.11.11-.14h0a3.26,3.26,0,0,1,.48-.27.38.38,0,0,1,.17-.08l.24-.08a.32.32,0,0,1,.21-.08l.44-.09a.52.52,0,0,1,.25,0,1.69,1.69,0,0,1,.45,0,.46.46,0,0,1,.26,0h.06a.18.18,0,0,1,.17,0h0a2.26,2.26,0,0,1,.93.52s.08,0,.09.09a2.21,2.21,0,0,1,.48,1.12.79.79,0,0,1,0,.34c0,2,0,4.06,0,6.08v.25h1.32c.18,0,.23,0,.23-.22q0-3.22,0-6.46A3.64,3.64,0,0,0,62.6,48.3Z"/><path class="cls-1" d="M34.41,47H33.1c-.07,0-.14,0-.2,0h0c-.07-.06,0-.14,0-.21,0-.91,0-1.82,0-2.72,0-.09,0-.19-.13-.17s-.06.07-.11,0a.27.27,0,0,1-.21.07c-.29.11-.56.23-.85.32a.29.29,0,0,0-.26.34c0,.77,0,1.54,0,2.31a.25.25,0,0,1-.15,0c-.21,0-.42,0-.63,0h-.26v.95a9,9,0,0,1,1,0h0a1.64,1.64,0,0,1,0,.22v5.68a4,4,0,0,0,0,.6,2.06,2.06,0,0,0,.76,1.35.66.66,0,0,1,.22.15h0a.92.92,0,0,0,.29.17,3.26,3.26,0,0,0,1.12.25h.81s.08,0,.08-.09v-.65c0-.06,0-.08-.08-.09a.41.41,0,0,1-.22,0h0a1.46,1.46,0,0,1-1.12-.45L33.1,55A.19.19,0,0,1,33,54.8a.31.31,0,0,1-.07-.21.45.45,0,0,1-.05-.3.34.34,0,0,1,0-.22c0-2,0-4,0-5.93,0-.16,0-.2.21-.2h1.54V47C34.57,47,34.48,47,34.41,47Z"/><path class="cls-1" d="M49.16,23.37a14.88,14.88,0,0,0-.72-3.29,3.3,3.3,0,0,0-1-1.48,1.84,1.84,0,0,0-1-.6,15.39,15.39,0,0,0-2.88-.1.21.21,0,0,0-.15,0,17.87,17.87,0,0,1,0,3.53,4.31,4.31,0,0,1-3.76,3.11c-1.62,0-2.83-.06-3.8-.1l-1,0H33.66a4.3,4.3,0,0,0-.94.12,3.27,3.27,0,0,0-2.33,2.85c-.11,1-.14,3.66-.14,4.7,0,.55,0,1.09,0,1.64a.48.48,0,0,0,.1.33v.1a.32.32,0,0,0,0,.09s0,0,0,.06a1.91,1.91,0,0,0,.67.94,1.86,1.86,0,0,0,.26.23,3.38,3.38,0,0,0,1.16.64h0a.72.72,0,0,0,.21.12,10.39,10.39,0,0,0,2.86.63,7.32,7.32,0,0,0,2.19-.08,8.33,8.33,0,0,0,2.68-.72,2.47,2.47,0,0,0,.74-.38,2.91,2.91,0,0,0,1.06-1.14h0a1.52,1.52,0,0,0,.27-.84c.06-.78,0-1.55,0-2.32,0,0,0,0,0-.06H36.39V30.25h9.77a1.27,1.27,0,0,0,.38-.11,2.39,2.39,0,0,0,1.52-1.41h0a7.45,7.45,0,0,0,.83-2.19h0c.07-.06.07-.16.09-.25A8.94,8.94,0,0,0,49.16,23.37Z"/><circle cx="40.35" cy="33.38" r="1.16"/><path class="cls-1" d="M23.79,24.8a13.62,13.62,0,0,0,.72,3.29,3.2,3.2,0,0,0,1,1.48,1.79,1.79,0,0,0,1,.6,15.5,15.5,0,0,0,2.89.11.18.18,0,0,0,.14-.05,17.84,17.84,0,0,1,.05-3.53,4.27,4.27,0,0,1,3.76-3.1c1.61,0,2.82,0,3.79.09l1,0h1.09a4.9,4.9,0,0,0,.94-.12,3.3,3.3,0,0,0,2.34-2.85c.1-1,.13-3.67.13-4.71,0-.54,0-1.09,0-1.64a.57.57,0,0,0-.11-.33V14s0-.06,0-.09,0-.05,0-.06a1.93,1.93,0,0,0-.67-.95l-.26-.23A3.38,3.38,0,0,0,40.41,12h0a.72.72,0,0,0-.21-.12,10.76,10.76,0,0,0-2.86-.63,7.34,7.34,0,0,0-2.19.09,8,8,0,0,0-2.67.71,2.79,2.79,0,0,0-.75.38,2.87,2.87,0,0,0-1.06,1.15h0a1.47,1.47,0,0,0-.27.84c-.06.77,0,1.54,0,2.32,0,0,0,0,0,0h6.17v1.12H26.78a1.36,1.36,0,0,0-.38.11,2.38,2.38,0,0,0-1.52,1.42h0a7.5,7.5,0,0,0-.83,2.18h0a.45.45,0,0,0-.09.25A9,9,0,0,0,23.79,24.8Z"/><circle cx="32.59" cy="14.51" r="1.16"/></g></g></svg>