<svg xmlns="http://www.w3.org/2000/svg" viewBox="0 0 24 24"><defs><style>.cls-1{fill:#fff;}</style></defs><title>Sass_1</title><g id="Layer_2" data-name="Layer 2"><g id="Layer_1-2" data-name="Layer 1"><rect width="24" height="24"/><path class="cls-1" d="M18,12.49a3.37,3.37,0,0,0-1.54.36,3,3,0,0,1-.34-.8,2.1,2.1,0,0,1,0-.67,4.5,4.5,0,0,1,.2-.73s0-.17-.38-.18-.64.07-.67.16a2.71,2.71,0,0,0-.14.5,12.18,12.18,0,0,1-1,2,1.88,1.88,0,0,1-.24-.58,2.09,2.09,0,0,1,0-.67,5.59,5.59,0,0,1,.2-.72s0-.18-.38-.18-.64.06-.67.15-.07.3-.14.51-.9,2-1.12,2.53c-.11.25-.21.44-.28.58h0v0l-.09.18h0c0,.08-.1.16-.12.16a1,1,0,0,1,0-.53c.13-.64.42-1.64.42-1.67s0-.19-.19-.28a.31.31,0,0,0-.35,0s0,.06,0,.06.27-1.13-.52-1.13a2.36,2.36,0,0,0-1.5,1l-1.14.63-.55.3,0,0c-1-1-2.71-1.73-2.63-3.1,0-.49.2-1.8,3.37-3.38,2.62-1.29,4.7-.93,5.06-.14.51,1.13-1.12,3.23-3.82,3.53A2,2,0,0,1,7.51,10c-.14-.15-.16-.16-.21-.13s0,.18,0,.26a1.55,1.55,0,0,0,1,.77,5.24,5.24,0,0,0,3.17-.31C13.07,10,14.35,8.19,14,6.72s-2.86-2-5.21-1.16a11.84,11.84,0,0,0-4,2.3c-1.3,1.21-1.5,2.27-1.42,2.71.3,1.56,2.46,2.58,3.32,3.33L6.55,14a6,6,0,0,0-2.48,2c-.47,1,.07,1.77.43,1.87a2.64,2.64,0,0,0,2.86-1.16A2.84,2.84,0,0,0,7.61,14v0l.34-.19c.22-.14.44-.26.62-.36a4.5,4.5,0,0,0-.22,1.13,2.39,2.39,0,0,0,.51,1.64.57.57,0,0,0,.41.14c.37,0,.53-.31.71-.67s.43-.95.43-.95-.25,1.38.43,1.38c.25,0,.5-.32.61-.48h0l0,0,0-.07h0c.1-.18.32-.57.66-1.23.42-.84.84-1.9.84-1.9a4.4,4.4,0,0,0,.16.69,6.86,6.86,0,0,0,.36.8l-.17.21h0c-.08.1-.17.22-.27.33a8.8,8.8,0,0,0-.79,1,.26.26,0,0,0,.07.36.67.67,0,0,0,.42.07,1.82,1.82,0,0,0,.62-.14,2.33,2.33,0,0,0,.54-.28,1.21,1.21,0,0,0,.51-1.06,2.18,2.18,0,0,0-.19-.75l.09-.13a15.24,15.24,0,0,0,.93-1.61,6.58,6.58,0,0,0,.16.69,6.45,6.45,0,0,0,.3.68,3,3,0,0,0-.9,1.17c-.2.57,0,.82.24.88a.86.86,0,0,0,.46-.09,2.25,2.25,0,0,0,.57-.3,1.29,1.29,0,0,0,.63-1,1.69,1.69,0,0,0-.14-.62,3.31,3.31,0,0,1,1.65-.19c1.48.18,1.77,1.1,1.71,1.49a1,1,0,0,1-.46.66c-.11.07-.14.09-.13.13s.06.07.15.06a1.18,1.18,0,0,0,.8-1C20.38,13.48,19.51,12.48,18,12.49ZM6.57,16.33c-.49.54-1.17.74-1.47.57s-.19-1,.41-1.54a9,9,0,0,1,1.15-.86L7,14.32l0,0H7l.08-.05A2.11,2.11,0,0,1,6.57,16.33Zm3.57-2.43c-.17.42-.53,1.49-.74,1.43s-.31-.86,0-1.66a3.45,3.45,0,0,1,.58-1.06c.27-.3.56-.4.63-.28A5.31,5.31,0,0,1,10.14,13.9Zm2.95,1.41c-.07,0-.14.07-.17,0s0-.06,0-.06.37-.4.51-.58.19-.23.29-.37v0C13.75,14.86,13.29,15.18,13.09,15.31Zm2.27-.51s0-.17.13-.55a2,2,0,0,1,.51-.66,1,1,0,0,1,.05.29A1,1,0,0,1,15.36,14.8Z"/></g></g></svg>