<svg xmlns="http://www.w3.org/2000/svg" viewBox="0 0 24 24"><defs><style>.cls-1{fill:#fff;}</style></defs><title>Socket</title><g id="Layer_2" data-name="Layer 2"><g id="Layer_1-2" data-name="Layer 1"><rect width="24" height="24"/><path class="cls-1" d="M21.08,11.75A8.93,8.93,0,0,0,9.89,3.31h0a8.93,8.93,0,1,0,11.19,8.44Zm-8.43,7.8A7.63,7.63,0,0,1,9.54,4.77a7.63,7.63,0,1,1,3.11,14.78Z"/><path class="cls-1" d="M11.63,12.39C10.58,14,9.5,15.59,8.46,17.2c2-1.54,3.9-3.21,5.87-4.8Z"/><path class="cls-1" d="M12.67,11.5c1.05-1.61,2.13-3.2,3.18-4.81-2,1.55-3.92,3.21-5.87,4.81Z"/></g></g></svg>